<?xml version="1.0" standalone="no"?>
<!DOCTYPE svg PUBLIC "-//W3C//DTD SVG 20010904//EN"
 "http://www.w3.org/TR/2001/REC-SVG-20010904/DTD/svg10.dtd">
<svg version="1.0" xmlns="http://www.w3.org/2000/svg"
 width="344.000000pt" height="344.000000pt" viewBox="0 0 344.000000 344.000000"
 preserveAspectRatio="xMidYMid meet">

<g transform="translate(0.000000,344.000000) scale(0.100000,-0.100000)"
fill="#000000" stroke="none">
<path d="M502 2788 c-39 -11 -72 -59 -72 -106 0 -25 9 -43 34 -68 l34 -34 147
0 147 0 34 34 c24 24 34 43 34 65 0 47 -27 91 -64 106 -37 16 -240 18 -294 3z"/>
<path d="M502 2358 c-39 -11 -72 -59 -72 -106 0 -25 9 -43 34 -68 l34 -34 147
0 147 0 34 34 c24 24 34 43 34 65 0 47 -27 91 -64 106 -37 16 -240 18 -294 3z"/>
<path d="M502 1928 c-39 -11 -72 -59 -72 -106 0 -25 9 -43 34 -68 l34 -34 147
0 147 0 34 34 c24 24 34 43 34 65 0 47 -27 91 -64 106 -37 16 -240 18 -294 3z"/>
<path d="M502 1498 c-39 -11 -72 -59 -72 -106 0 -25 9 -43 34 -68 l34 -34 147
0 147 0 34 34 c24 24 34 43 34 65 0 47 -27 91 -64 106 -37 16 -240 18 -294 3z"/>
<path d="M502 1068 c-39 -11 -72 -59 -72 -106 0 -25 9 -43 34 -68 l34 -34 147
0 147 0 34 34 c24 24 34 43 34 65 0 47 -27 91 -64 106 -37 16 -240 18 -294 3z"/>
</g>
</svg>
